<svg width="9" height="15" viewBox="0 0 9 15" fill="none" xmlns="http://www.w3.org/2000/svg">
<path d="M8.68822 0.296443C8.89607 0.494071 9 0.728064 9 0.99842C9 1.26825 8.89607 1.50198 8.68822 1.6996L2.59815 7.49012L8.70901 13.3004C8.903 13.4848 9 13.7154 9 13.9921C9 14.2688 8.89607 14.5059 8.68822 14.7036C8.48037 14.9012 8.23427 15 7.94993 15C7.66614 15 7.42032 14.9012 7.21247 14.7036L0.228637 8.04348C0.145496 7.96443 0.0864668 7.87879 0.0515471 7.78656C0.0171824 7.69433 0 7.59552 0 7.49012C0 7.38472 0.0171824 7.2859 0.0515471 7.19368C0.0864668 7.10145 0.145496 7.01581 0.228637 6.93676L7.23326 0.27668C7.42725 0.092227 7.66614 0 7.94993 0C8.23427 0 8.48037 0.098814 8.68822 0.296443Z" fill="#5C5B5B"/>
</svg>
