<svg width="20" height="20" viewBox="0 0 20 20" fill="none" xmlns="http://www.w3.org/2000/svg">
<path d="M10 18.3333C11.0946 18.3346 12.1786 18.1197 13.1898 17.7008C14.201 17.282 15.1195 16.6674 15.8925 15.8925C16.6675 15.1195 17.282 14.201 17.7009 13.1898C18.1198 12.1785 18.3347 11.0945 18.3334 9.99997C18.3347 8.90542 18.1198 7.82139 17.7009 6.81017C17.282 5.79895 16.6675 4.88045 15.8925 4.10747C15.1195 3.33253 14.201 2.71797 13.1898 2.2991C12.1786 1.88022 11.0946 1.66528 10 1.66663C8.90548 1.66528 7.82146 1.88022 6.81023 2.2991C5.79901 2.71797 4.88051 3.33253 4.10753 4.10747C3.33259 4.88045 2.71803 5.79895 2.29916 6.81017C1.88028 7.82139 1.66534 8.90542 1.66669 9.99997C1.66534 11.0945 1.88028 12.1785 2.29916 13.1898C2.71803 14.201 3.33259 15.1195 4.10753 15.8925C4.88051 16.6674 5.79901 17.282 6.81023 17.7008C7.82146 18.1197 8.90548 18.3346 10 18.3333Z" stroke="#005BAC" stroke-width="2" stroke-linejoin="round"/>
<path d="M6.66669 10L9.16669 12.5L14.1667 7.5" stroke="#005BAC" stroke-width="2" stroke-linecap="round" stroke-linejoin="round"/>
</svg>
